<!-- Procedural paper/leather grain, seed 4096. No filters or external assets. -->
<svg xmlns="http://www.w3.org/2000/svg" width="64" height="64" viewBox="0 0 64 64"><rect x="52.70" y="51.28" width="1.5" height=".7" fill="#000" opacity="0.03"/><rect x="24.62" y="18.36" width="0.5" height=".7" fill="#fff" opacity="0.035"/><rect x="14.71" y="15.71" width="0.5" height=".7" fill="#000" opacity="0.03"/><rect x="55.77" y="12.96" width="1.5" height=".7" fill="#fff" opacity="0.035"/><rect x="13.12" y="57.01" width="0.5" height=".7" fill="#000" opacity="0.03"/><rect x="16.45" y="46.61" width="0.5" height=".7" fill="#fff" opacity="0.035"/><rect x="53.60" y="33.93" width="1.5" height=".7" fill="#000" opacity="0.03"/><rect x="14.90" y="41.01" width="0.5" height=".7" fill="#fff" opacity="0.035"/><rect x="1.75" y="36.62" width="0.5" height=".7" fill="#000" opacity="0.03"/><rect x="24.64" y="57.51" width="1.5" height=".7" fill="#fff" opacity="0.035"/><rect x="13.90" y="56.87" width="0.5" height=".7" fill="#000" opacity="0.03"/><rect x="43.10" y="62.01" width="0.5" height=".7" fill="#fff" opacity="0.035"/><rect x="55.90" y="59.11" width="1.5" height=".7" fill="#000" opacity="0.03"/><rect x="52.92" y="35.34" width="0.5" height=".7" fill="#fff" opacity="0.035"/><rect x="39.11" y="41.24" width="0.5" height=".7" fill="#000" opacity="0.03"/><rect x="10.76" y="25.80" width="1.5" height=".7" fill="#fff" opacity="0.035"/><rect x="6.30" y="10.26" width="0.5" height=".7" fill="#000" opacity="0.03"/><rect x="40.64" y="13.15" width="0.5" height=".7" fill="#fff" opacity="0.035"/><rect x="8.74" y="5.77" width="1.5" height=".7" fill="#000" opacity="0.03"/><rect x="0.94" y="44.79" width="0.5" height=".7" fill="#fff" opacity="0.035"/><rect x="35.26" y="0.19" width="0.5" height=".7" fill="#000" opacity="0.03"/><rect x="41.85" y="33.36" width="1.5" height=".7" fill="#fff" opacity="0.035"/><rect x="50.43" y="32.87" width="0.5" height=".7" fill="#000" opacity="0.03"/><rect x="10.48" y="28.59" width="0.5" height=".7" fill="#fff" opacity="0.035"/><rect x="22.77" y="55.00" width="1.5" height=".7" fill="#000" opacity="0.03"/><rect x="56.45" y="0.45" width="0.5" height=".7" fill="#fff" opacity="0.035"/><rect x="32.05" y="2.27" width="0.5" height=".7" fill="#000" opacity="0.03"/><rect x="7.13" y="42.67" width="1.5" height=".7" fill="#fff" opacity="0.035"/><rect x="48.63" y="52.43" width="0.5" height=".7" fill="#000" opacity="0.03"/><rect x="25.33" y="1.52" width="0.5" height=".7" fill="#fff" opacity="0.035"/><rect x="17.87" y="16.61" width="1.5" height=".7" fill="#000" opacity="0.03"/><rect x="22.67" y="46.93" width="0.5" height=".7" fill="#fff" opacity="0.035"/><rect x="2.61" y="29.44" width="0.5" height=".7" fill="#000" opacity="0.03"/><rect x="53.45" y="6.92" width="1.5" height=".7" fill="#fff" opacity="0.035"/><rect x="24.67" y="47.07" width="0.5" height=".7" fill="#000" opacity="0.03"/><rect x="26.06" y="38.35" width="0.5" height=".7" fill="#fff" opacity="0.035"/><rect x="30.51" y="29.86" width="1.5" height=".7" fill="#000" opacity="0.03"/><rect x="29.02" y="38.94" width="0.5" height=".7" fill="#fff" opacity="0.035"/><rect x="37.84" y="15.03" width="0.5" height=".7" fill="#000" opacity="0.03"/><rect x="24.52" y="21.65" width="1.5" height=".7" fill="#fff" opacity="0.035"/><rect x="24.36" y="4.01" width="0.5" height=".7" fill="#000" opacity="0.03"/><rect x="46.58" y="40.35" width="0.5" height=".7" fill="#fff" opacity="0.035"/><rect x="31.54" y="53.66" width="1.5" height=".7" fill="#000" opacity="0.03"/><rect x="8.70" y="63.84" width="0.5" height=".7" fill="#fff" opacity="0.035"/><rect x="12.47" y="16.31" width="0.5" height=".7" fill="#000" opacity="0.03"/><rect x="34.16" y="19.09" width="1.5" height=".7" fill="#fff" opacity="0.035"/><rect x="56.79" y="53.55" width="0.5" height=".7" fill="#000" opacity="0.03"/><rect x="61.78" y="48.92" width="0.5" height=".7" fill="#fff" opacity="0.035"/><rect x="41.62" y="56.93" width="1.5" height=".7" fill="#000" opacity="0.03"/><rect x="56.36" y="20.86" width="0.5" height=".7" fill="#fff" opacity="0.035"/><rect x="13.63" y="28.35" width="0.5" height=".7" fill="#000" opacity="0.03"/><rect x="56.58" y="28.45" width="1.5" height=".7" fill="#fff" opacity="0.035"/><rect x="63.13" y="33.40" width="0.5" height=".7" fill="#000" opacity="0.03"/><rect x="13.53" y="57.75" width="0.5" height=".7" fill="#fff" opacity="0.035"/><rect x="3.23" y="20.38" width="1.5" height=".7" fill="#000" opacity="0.03"/><rect x="28.74" y="16.21" width="0.5" height=".7" fill="#fff" opacity="0.035"/><rect x="15.04" y="6.24" width="0.5" height=".7" fill="#000" opacity="0.03"/><rect x="16.85" y="56.87" width="1.5" height=".7" fill="#fff" opacity="0.035"/><rect x="44.00" y="58.26" width="0.5" height=".7" fill="#000" opacity="0.03"/><rect x="9.78" y="58.81" width="0.5" height=".7" fill="#fff" opacity="0.035"/><rect x="36.18" y="28.59" width="1.5" height=".7" fill="#000" opacity="0.03"/><rect x="31.48" y="20.98" width="0.5" height=".7" fill="#fff" opacity="0.035"/><rect x="47.74" y="38.54" width="0.5" height=".7" fill="#000" opacity="0.03"/><rect x="24.27" y="6.31" width="1.5" height=".7" fill="#fff" opacity="0.035"/><rect x="44.34" y="37.81" width="0.5" height=".7" fill="#000" opacity="0.03"/><rect x="3.69" y="17.12" width="0.5" height=".7" fill="#fff" opacity="0.035"/><rect x="55.75" y="43.33" width="1.5" height=".7" fill="#000" opacity="0.03"/><rect x="58.95" y="6.86" width="0.5" height=".7" fill="#fff" opacity="0.035"/><rect x="22.37" y="55.14" width="0.5" height=".7" fill="#000" opacity="0.03"/><rect x="23.94" y="57.20" width="1.5" height=".7" fill="#fff" opacity="0.035"/><rect x="30.96" y="5.89" width="0.5" height=".7" fill="#000" opacity="0.03"/><rect x="3.81" y="61.32" width="0.5" height=".7" fill="#fff" opacity="0.035"/><rect x="52.31" y="53.30" width="1.5" height=".7" fill="#000" opacity="0.03"/><rect x="14.07" y="62.66" width="0.5" height=".7" fill="#fff" opacity="0.035"/><rect x="38.06" y="4.30" width="0.5" height=".7" fill="#000" opacity="0.03"/><rect x="13.29" y="45.87" width="1.5" height=".7" fill="#fff" opacity="0.035"/><rect x="33.52" y="4.12" width="0.5" height=".7" fill="#000" opacity="0.03"/><rect x="26.38" y="41.10" width="0.5" height=".7" fill="#fff" opacity="0.035"/><rect x="43.60" y="31.07" width="1.5" height=".7" fill="#000" opacity="0.03"/><rect x="7.35" y="10.65" width="0.5" height=".7" fill="#fff" opacity="0.035"/><rect x="44.79" y="42.19" width="0.5" height=".7" fill="#000" opacity="0.03"/><rect x="2.76" y="26.86" width="1.5" height=".7" fill="#fff" opacity="0.035"/><rect x="40.16" y="6.74" width="0.5" height=".7" fill="#000" opacity="0.03"/><rect x="40.60" y="50.39" width="0.5" height=".7" fill="#fff" opacity="0.035"/><rect x="6.50" y="40.43" width="1.5" height=".7" fill="#000" opacity="0.03"/><rect x="17.83" y="41.71" width="0.5" height=".7" fill="#fff" opacity="0.035"/><rect x="46.43" y="37.54" width="0.5" height=".7" fill="#000" opacity="0.03"/><rect x="3.44" y="3.02" width="1.5" height=".7" fill="#fff" opacity="0.035"/><rect x="50.69" y="5.78" width="0.5" height=".7" fill="#000" opacity="0.03"/><rect x="46.07" y="11.40" width="0.5" height=".7" fill="#fff" opacity="0.035"/><rect x="47.36" y="21.01" width="1.5" height=".7" fill="#000" opacity="0.03"/><rect x="63.20" y="0.30" width="0.5" height=".7" fill="#fff" opacity="0.035"/><rect x="63.24" y="14.77" width="0.5" height=".7" fill="#000" opacity="0.03"/><rect x="20.91" y="22.36" width="1.5" height=".7" fill="#fff" opacity="0.035"/><rect x="2.27" y="7.60" width="0.5" height=".7" fill="#000" opacity="0.03"/><rect x="53.21" y="14.47" width="0.5" height=".7" fill="#fff" opacity="0.035"/><rect x="61.97" y="9.18" width="1.5" height=".7" fill="#000" opacity="0.03"/><rect x="57.89" y="22.26" width="0.5" height=".7" fill="#fff" opacity="0.035"/><rect x="49.01" y="38.30" width="0.5" height=".7" fill="#000" opacity="0.03"/><rect x="49.99" y="0.81" width="1.5" height=".7" fill="#fff" opacity="0.035"/><rect x="2.76" y="27.64" width="0.5" height=".7" fill="#000" opacity="0.03"/><rect x="9.78" y="52.69" width="0.5" height=".7" fill="#fff" opacity="0.035"/><rect x="8.02" y="34.31" width="1.5" height=".7" fill="#000" opacity="0.03"/><rect x="26.33" y="60.34" width="0.5" height=".7" fill="#fff" opacity="0.035"/><rect x="37.68" y="41.29" width="0.5" height=".7" fill="#000" opacity="0.03"/><rect x="17.67" y="53.75" width="1.5" height=".7" fill="#fff" opacity="0.035"/><rect x="42.53" y="58.61" width="0.5" height=".7" fill="#000" opacity="0.03"/><rect x="52.44" y="46.41" width="0.5" height=".7" fill="#fff" opacity="0.035"/><rect x="9.11" y="33.38" width="1.5" height=".7" fill="#000" opacity="0.03"/><rect x="10.15" y="8.67" width="0.5" height=".7" fill="#fff" opacity="0.035"/><rect x="42.63" y="53.60" width="0.5" height=".7" fill="#000" opacity="0.03"/><rect x="21.05" y="23.31" width="1.5" height=".7" fill="#fff" opacity="0.035"/><rect x="35.89" y="2.87" width="0.5" height=".7" fill="#000" opacity="0.03"/><rect x="6.41" y="44.47" width="0.5" height=".7" fill="#fff" opacity="0.035"/><rect x="37.41" y="14.75" width="1.5" height=".7" fill="#000" opacity="0.03"/><rect x="48.56" y="40.92" width="0.5" height=".7" fill="#fff" opacity="0.035"/><rect x="15.42" y="20.11" width="0.5" height=".7" fill="#000" opacity="0.03"/><rect x="7.34" y="40.56" width="1.5" height=".7" fill="#fff" opacity="0.035"/><rect x="35.11" y="24.18" width="0.5" height=".7" fill="#000" opacity="0.03"/><rect x="16.16" y="57.33" width="0.5" height=".7" fill="#fff" opacity="0.035"/><rect x="25.78" y="14.44" width="1.5" height=".7" fill="#000" opacity="0.03"/><rect x="50.68" y="25.36" width="0.5" height=".7" fill="#fff" opacity="0.035"/><rect x="59.20" y="16.33" width="0.5" height=".7" fill="#000" opacity="0.03"/><rect x="42.95" y="9.47" width="1.5" height=".7" fill="#fff" opacity="0.035"/><rect x="27.88" y="61.80" width="0.5" height=".7" fill="#000" opacity="0.03"/><rect x="46.17" y="16.95" width="0.5" height=".7" fill="#fff" opacity="0.035"/><rect x="60.54" y="43.57" width="1.5" height=".7" fill="#000" opacity="0.03"/><rect x="35.05" y="31.71" width="0.5" height=".7" fill="#fff" opacity="0.035"/><rect x="19.56" y="20.36" width="0.5" height=".7" fill="#000" opacity="0.03"/><rect x="30.63" y="11.66" width="1.5" height=".7" fill="#fff" opacity="0.035"/><rect x="25.51" y="17.80" width="0.5" height=".7" fill="#000" opacity="0.03"/><rect x="38.75" y="54.50" width="0.5" height=".7" fill="#fff" opacity="0.035"/><rect x="1.74" y="50.19" width="1.5" height=".7" fill="#000" opacity="0.03"/><rect x="11.08" y="56.73" width="0.5" height=".7" fill="#fff" opacity="0.035"/><rect x="24.08" y="16.12" width="0.5" height=".7" fill="#000" opacity="0.03"/><rect x="53.64" y="63.03" width="1.5" height=".7" fill="#fff" opacity="0.035"/><rect x="12.52" y="32.82" width="0.5" height=".7" fill="#000" opacity="0.03"/><rect x="35.94" y="22.92" width="0.5" height=".7" fill="#fff" opacity="0.035"/><rect x="6.00" y="62.40" width="1.5" height=".7" fill="#000" opacity="0.03"/><rect x="9.69" y="55.77" width="0.5" height=".7" fill="#fff" opacity="0.035"/><rect x="37.31" y="2.88" width="0.5" height=".7" fill="#000" opacity="0.03"/><rect x="46.04" y="37.11" width="1.5" height=".7" fill="#fff" opacity="0.035"/><rect x="48.91" y="24.97" width="0.5" height=".7" fill="#000" opacity="0.03"/><rect x="36.42" y="23.20" width="0.5" height=".7" fill="#fff" opacity="0.035"/><rect x="50.99" y="55.77" width="1.5" height=".7" fill="#000" opacity="0.03"/><rect x="17.87" y="38.99" width="0.5" height=".7" fill="#fff" opacity="0.035"/><rect x="34.43" y="14.19" width="0.5" height=".7" fill="#000" opacity="0.03"/><rect x="0.02" y="10.35" width="1.5" height=".7" fill="#fff" opacity="0.035"/><rect x="63.97" y="51.24" width="0.5" height=".7" fill="#000" opacity="0.03"/><rect x="14.59" y="61.62" width="0.5" height=".7" fill="#fff" opacity="0.035"/><rect x="32.31" y="0.10" width="1.5" height=".7" fill="#000" opacity="0.03"/><rect x="36.45" y="7.46" width="0.5" height=".7" fill="#fff" opacity="0.035"/><rect x="44.38" y="9.03" width="0.5" height=".7" fill="#000" opacity="0.03"/><rect x="17.25" y="20.07" width="1.5" height=".7" fill="#fff" opacity="0.035"/><rect x="48.58" y="58.04" width="0.5" height=".7" fill="#000" opacity="0.03"/><rect x="32.59" y="52.61" width="0.5" height=".7" fill="#fff" opacity="0.035"/><rect x="36.16" y="44.48" width="1.5" height=".7" fill="#000" opacity="0.03"/><rect x="47.83" y="32.08" width="0.5" height=".7" fill="#fff" opacity="0.035"/><rect x="33.61" y="26.28" width="0.5" height=".7" fill="#000" opacity="0.03"/><rect x="39.35" y="34.34" width="1.5" height=".7" fill="#fff" opacity="0.035"/><rect x="25.17" y="36.19" width="0.5" height=".7" fill="#000" opacity="0.03"/><rect x="8.45" y="54.63" width="0.5" height=".7" fill="#fff" opacity="0.035"/><rect x="22.31" y="47.64" width="1.5" height=".7" fill="#000" opacity="0.03"/><rect x="16.80" y="26.26" width="0.5" height=".7" fill="#fff" opacity="0.035"/><rect x="1.37" y="49.60" width="0.5" height=".7" fill="#000" opacity="0.03"/><rect x="4.43" y="52.63" width="1.5" height=".7" fill="#fff" opacity="0.035"/><rect x="22.20" y="11.11" width="0.5" height=".7" fill="#000" opacity="0.03"/><rect x="63.30" y="1.68" width="0.5" height=".7" fill="#fff" opacity="0.035"/><rect x="24.89" y="44.67" width="1.5" height=".7" fill="#000" opacity="0.03"/><rect x="63.44" y="59.49" width="0.5" height=".7" fill="#fff" opacity="0.035"/><rect x="33.55" y="5.48" width="0.5" height=".7" fill="#000" opacity="0.03"/><rect x="40.61" y="16.28" width="1.5" height=".7" fill="#fff" opacity="0.035"/><rect x="40.18" y="19.44" width="0.5" height=".7" fill="#000" opacity="0.03"/><rect x="18.61" y="1.75" width="0.5" height=".7" fill="#fff" opacity="0.035"/><rect x="9.53" y="56.98" width="1.5" height=".7" fill="#000" opacity="0.03"/><rect x="3.04" y="26.65" width="0.5" height=".7" fill="#fff" opacity="0.035"/><rect x="14.13" y="13.71" width="0.5" height=".7" fill="#000" opacity="0.03"/><rect x="3.70" y="55.74" width="1.5" height=".7" fill="#fff" opacity="0.035"/><rect x="12.29" y="46.88" width="0.5" height=".7" fill="#000" opacity="0.03"/><rect x="22.55" y="49.00" width="0.5" height=".7" fill="#fff" opacity="0.035"/><rect x="14.20" y="36.63" width="1.5" height=".7" fill="#000" opacity="0.03"/><rect x="24.17" y="0.19" width="0.5" height=".7" fill="#fff" opacity="0.035"/><rect x="53.11" y="1.12" width="0.5" height=".7" fill="#000" opacity="0.03"/><rect x="49.88" y="17.72" width="1.5" height=".7" fill="#fff" opacity="0.035"/><rect x="34.54" y="46.35" width="0.5" height=".7" fill="#000" opacity="0.03"/><rect x="12.32" y="60.83" width="0.5" height=".7" fill="#fff" opacity="0.035"/><rect x="0.56" y="47.95" width="1.5" height=".7" fill="#000" opacity="0.03"/><rect x="3.69" y="48.06" width="0.5" height=".7" fill="#fff" opacity="0.035"/><rect x="18.13" y="45.63" width="0.5" height=".7" fill="#000" opacity="0.03"/><rect x="46.45" y="47.05" width="1.5" height=".7" fill="#fff" opacity="0.035"/><rect x="4.54" y="43.55" width="0.5" height=".7" fill="#000" opacity="0.03"/><rect x="23.68" y="14.68" width="0.5" height=".7" fill="#fff" opacity="0.035"/><rect x="10.86" y="37.45" width="1.5" height=".7" fill="#000" opacity="0.03"/><rect x="29.94" y="44.49" width="0.5" height=".7" fill="#fff" opacity="0.035"/><rect x="28.48" y="17.63" width="0.5" height=".7" fill="#000" opacity="0.03"/><rect x="55.70" y="46.38" width="1.5" height=".7" fill="#fff" opacity="0.035"/><rect x="63.72" y="32.69" width="0.5" height=".7" fill="#000" opacity="0.03"/><rect x="46.38" y="39.71" width="0.5" height=".7" fill="#fff" opacity="0.035"/><rect x="25.44" y="31.11" width="1.5" height=".7" fill="#000" opacity="0.03"/><rect x="48.88" y="16.63" width="0.5" height=".7" fill="#fff" opacity="0.035"/><rect x="10.86" y="45.68" width="0.5" height=".7" fill="#000" opacity="0.03"/><rect x="46.73" y="12.77" width="1.5" height=".7" fill="#fff" opacity="0.035"/><rect x="54.23" y="21.67" width="0.5" height=".7" fill="#000" opacity="0.03"/><rect x="60.78" y="14.23" width="0.5" height=".7" fill="#fff" opacity="0.035"/><rect x="19.77" y="13.88" width="1.5" height=".7" fill="#000" opacity="0.03"/><rect x="20.42" y="49.88" width="0.5" height=".7" fill="#fff" opacity="0.035"/><rect x="15.53" y="21.45" width="0.5" height=".7" fill="#000" opacity="0.03"/><rect x="14.47" y="1.97" width="1.5" height=".7" fill="#fff" opacity="0.035"/><rect x="57.38" y="25.51" width="0.5" height=".7" fill="#000" opacity="0.03"/><rect x="10.47" y="28.03" width="0.5" height=".7" fill="#fff" opacity="0.035"/><rect x="32.04" y="42.63" width="1.5" height=".7" fill="#000" opacity="0.03"/><rect x="3.70" y="7.18" width="0.5" height=".7" fill="#fff" opacity="0.035"/><rect x="0.18" y="23.11" width="0.5" height=".7" fill="#000" opacity="0.03"/><rect x="36.63" y="23.60" width="1.5" height=".7" fill="#fff" opacity="0.035"/><rect x="0.57" y="15.05" width="0.5" height=".7" fill="#000" opacity="0.03"/><rect x="58.00" y="12.43" width="0.5" height=".7" fill="#fff" opacity="0.035"/><rect x="4.34" y="7.24" width="1.5" height=".7" fill="#000" opacity="0.03"/><rect x="54.48" y="36.96" width="0.5" height=".7" fill="#fff" opacity="0.035"/><rect x="44.20" y="31.87" width="0.5" height=".7" fill="#000" opacity="0.03"/><rect x="7.81" y="58.10" width="1.5" height=".7" fill="#fff" opacity="0.035"/><rect x="47.86" y="36.06" width="0.5" height=".7" fill="#000" opacity="0.03"/><rect x="14.59" y="57.18" width="0.5" height=".7" fill="#fff" opacity="0.035"/><rect x="8.39" y="7.17" width="1.5" height=".7" fill="#000" opacity="0.03"/><rect x="25.60" y="45.05" width="0.5" height=".7" fill="#fff" opacity="0.035"/><rect x="52.70" y="20.97" width="0.5" height=".7" fill="#000" opacity="0.03"/><rect x="21.63" y="18.54" width="1.5" height=".7" fill="#fff" opacity="0.035"/><rect x="49.09" y="25.59" width="0.5" height=".7" fill="#000" opacity="0.03"/><rect x="51.00" y="5.19" width="0.5" height=".7" fill="#fff" opacity="0.035"/><rect x="10.84" y="22.25" width="1.5" height=".7" fill="#000" opacity="0.03"/><rect x="17.49" y="33.27" width="0.5" height=".7" fill="#fff" opacity="0.035"/><rect x="8.88" y="39.92" width="0.5" height=".7" fill="#000" opacity="0.03"/><rect x="19.94" y="8.17" width="1.5" height=".7" fill="#fff" opacity="0.035"/><rect x="50.49" y="20.64" width="0.5" height=".7" fill="#000" opacity="0.03"/><rect x="12.38" y="4.08" width="0.5" height=".7" fill="#fff" opacity="0.035"/><rect x="13.11" y="4.77" width="1.5" height=".7" fill="#000" opacity="0.03"/><rect x="1.74" y="23.95" width="0.5" height=".7" fill="#fff" opacity="0.035"/><rect x="58.16" y="61.01" width="0.5" height=".7" fill="#000" opacity="0.03"/><rect x="32.03" y="24.83" width="1.5" height=".7" fill="#fff" opacity="0.035"/><rect x="45.99" y="62.19" width="0.5" height=".7" fill="#000" opacity="0.03"/><rect x="52.26" y="61.46" width="0.5" height=".7" fill="#fff" opacity="0.035"/><rect x="8.81" y="63.96" width="1.5" height=".7" fill="#000" opacity="0.03"/><rect x="36.74" y="33.18" width="0.5" height=".7" fill="#fff" opacity="0.035"/><rect x="42.76" y="11.24" width="0.5" height=".7" fill="#000" opacity="0.03"/><rect x="39.04" y="7.20" width="1.5" height=".7" fill="#fff" opacity="0.035"/><rect x="43.96" y="9.47" width="0.5" height=".7" fill="#000" opacity="0.03"/><rect x="4.53" y="59.14" width="0.5" height=".7" fill="#fff" opacity="0.035"/><rect x="49.75" y="45.70" width="1.5" height=".7" fill="#000" opacity="0.03"/><rect x="14.38" y="59.89" width="0.5" height=".7" fill="#fff" opacity="0.035"/><rect x="41.82" y="44.49" width="0.5" height=".7" fill="#000" opacity="0.03"/><rect x="50.27" y="45.77" width="1.5" height=".7" fill="#fff" opacity="0.035"/></svg>
